<?xml version="1.0" encoding="utf-8"?>
<!DOCTYPE svg PUBLIC "-//W3C//DTD SVG 1.1//EN" "http://www.w3.org/Graphics/SVG/1.1/DTD/svg11.dtd">
<svg version="1.1" id="Layer_5" xmlns="http://www.w3.org/2000/svg" xmlns:xlink="http://www.w3.org/1999/xlink" x="0px" y="0px"
	 width="175.582px" height="174.691px" viewBox="0 0 175.582 174.691" enable-background="new 0 0 175.582 174.691"
	 xml:space="preserve">
<g>
	<path fill="white" d="M127.364,95.66c-2.205,2.205-5.813,2.205-8.018,0L80.03,56.346
		c-2.205-2.205-2.205-5.813,0-8.018l25.43-25.43c2.205-2.205,5.813-2.205,8.018,0l39.315,39.315c2.205,2.205,2.205,5.813,0,8.018
		L127.364,95.66z M110.699,12.325c2.205-2.205,2.205-5.813,0-8.018L110.4,4.009c-2.205-2.205-5.813-2.205-8.018,0L60.672,45.72
		c-2.205,2.205-2.205,5.813,0,8.018l0.298,0.298c2.205,2.205,5.813,2.205,8.018,0L110.699,12.325z M171.574,73.203
		c2.205-2.205,2.205-5.813,0-8.018l-0.299-0.298c-2.205-2.205-5.813-2.205-8.018,0l-41.71,41.712c-2.205,2.205-2.205,5.813,0,8.018
		l0.298,0.297c2.205,2.205,5.813,2.205,8.018,0L171.574,73.203z M92.008,74.325c-2.205-2.205-5.813-2.205-8.018,0L4.009,154.308
		c-2.205,2.205-2.205,5.813,0,8.018l8.357,8.357c2.205,2.205,5.813,2.205,8.018,0L100.367,90.7c2.205-2.205,2.205-5.813,0-8.018
		L92.008,74.325z"/>
</g>
</svg>
